<svg width="193" height="102" viewBox="0 0 193 102" fill="none" xmlns="http://www.w3.org/2000/svg">
<path fill-rule="evenodd" clip-rule="evenodd" d="M40.5817 92.8215C38.8938 95.8563 37.0274 98.7439 35 101.464C38.4652 101.758 41.9963 101.934 45.5808 101.985C46.2972 101.995 47.0158 102 47.7364 102C90.5055 102 132.156 73.0448 141.196 56.6717C143.373 61.5779 148.287 65 154 65C159.97 65 165.068 61.2627 167.081 56H193V47H167.42C165.699 41.217 160.342 37 154 37C148.287 37 143.373 40.4221 141.196 45.3283C132.156 28.9552 90.5055 0 47.7364 0C47.0158 0 46.2972 0.00507228 45.5808 0.0151589C41.9963 0.065626 38.4652 0.241621 35 0.535886C37.0274 3.25612 38.8938 6.14371 40.5817 9.17851C44.4314 16.0997 47.3533 23.7866 49.1422 32H42.0276C39.5334 22.4103 35.2427 13.6637 29.572 6.263L22.428 11.737C26.9108 17.5873 30.4322 24.4499 32.6851 32H0V41H34.7045C35.227 44.407 35.5 47.9153 35.5 51.5C35.5 54.735 35.2777 57.9078 34.8503 61H0V70H32.975C30.74 77.9446 27.108 85.1554 22.428 91.263L29.572 96.737C35.4393 89.0798 39.8292 79.9819 42.2804 70H49.1422C47.3533 78.2134 44.4314 85.9003 40.5817 92.8215ZM161 51C161 47.134 157.866 44 154 44C150.134 44 147 47.134 147 51C147 54.866 150.134 58 154 58C157.866 58 161 54.866 161 51ZM43.7972 41H50.6171C50.9814 44.2733 51.1693 47.6111 51.1693 51C51.1693 54.3889 50.9814 57.7267 50.6171 61H43.9257C44.3045 57.8922 44.5 54.7206 44.5 51.5C44.5 47.9332 44.2603 44.4266 43.7972 41ZM50.6613 92.9506C71.7148 92.2443 92.6898 84.0446 108.762 74.0972C117.131 68.9171 123.865 63.4492 128.382 58.6837C130.647 56.2938 132.195 54.2484 133.124 52.6624C133.616 51.8224 133.837 51.2774 133.934 51C133.837 50.7226 133.616 50.1776 133.124 49.3376C132.195 47.7516 130.647 45.7062 128.382 43.3163C123.865 38.5508 117.131 33.0829 108.762 27.9028C92.6898 17.9554 71.7148 9.75569 50.6613 9.04935C56.741 21.5085 60.1693 35.8328 60.1693 51C60.1693 66.1673 56.741 80.4915 50.6613 92.9506Z" fill="#3D8FDB"/>
</svg>
