<svg width="193" height="86" viewBox="0 0 193 86" fill="none" xmlns="http://www.w3.org/2000/svg">
<circle cx="153" cy="43" r="10.5" stroke="#3D8FDB" stroke-width="7"/>
<rect y="53" width="50" height="9" fill="#3D8FDB"/>
<rect y="24" width="50" height="9" fill="#3D8FDB"/>
<rect x="163" y="38" width="30" height="9" fill="#3D8FDB"/>
<path d="M112.995 81.5H112.983H48.5V4.5H112.818C112.844 4.50245 112.875 4.50543 112.909 4.50902C113.084 4.52706 113.368 4.56021 113.744 4.61719C114.497 4.73135 115.614 4.93981 116.972 5.31019C119.7 6.05402 123.323 7.42969 126.927 9.94179C133.908 14.8072 141.5 24.3945 141.5 44C141.5 63.5974 133.925 72.6 127.084 76.9535C123.524 79.2188 119.937 80.3659 117.222 80.9417C115.872 81.2281 114.761 81.3682 114.011 81.4364C113.636 81.4705 113.354 81.4864 113.18 81.4938C113.093 81.4975 113.033 81.499 113.002 81.4997L112.983 81.5L112.99 81.5L112.995 81.5ZM112.995 81.5H113V86C113 81.5 112.997 81.5 112.995 81.5Z" stroke="#3D8FDB" stroke-width="9"/>
</svg>
