<svg width="193" height="102" viewBox="0 0 193 102" fill="none" xmlns="http://www.w3.org/2000/svg">
<path fill-rule="evenodd" clip-rule="evenodd" d="M40.5817 92.8215C38.8938 95.8563 37.0274 98.7439 35 101.464C38.4652 101.758 41.9963 101.934 45.5808 101.985C46.2972 101.995 47.0158 102 47.7364 102C89.7032 102 130.593 74.1209 140.654 57.6061C143.013 62.007 147.657 65 153 65C158.97 65 164.068 61.2627 166.081 56H193V47H166.42C164.699 41.217 159.342 37 153 37C147.657 37 143.013 39.993 140.654 44.3939C130.593 27.8791 89.7032 0 47.7364 0C47.0158 0 46.2972 0.00507228 45.5808 0.0151589C41.9963 0.065626 38.4652 0.241621 35 0.535886C37.0274 3.25612 38.8938 6.14371 40.5817 9.17851C44.4314 16.0997 47.3533 23.7866 49.1422 32H0V41H50.6171C50.9814 44.2733 51.1693 47.6111 51.1693 51C51.1693 54.3889 50.9814 57.7267 50.6171 61H0V70H49.1422C47.3533 78.2134 44.4314 85.9003 40.5817 92.8215ZM50.6613 92.9506C71.7148 92.2443 92.6898 84.0446 108.762 74.0972C117.131 68.9171 123.865 63.4492 128.382 58.6837C130.647 56.2938 132.195 54.2484 133.124 52.6624C133.616 51.8224 133.837 51.2774 133.934 51C133.837 50.7226 133.616 50.1776 133.124 49.3376C132.195 47.7516 130.647 45.7062 128.382 43.3163C123.865 38.5508 117.131 33.0829 108.762 27.9028C92.6898 17.9554 71.7148 9.75569 50.6613 9.04935C56.741 21.5085 60.1693 35.8328 60.1693 51C60.1693 66.1673 56.741 80.4915 50.6613 92.9506ZM153 58C156.866 58 160 54.866 160 51C160 47.134 156.866 44 153 44C149.134 44 146 47.134 146 51C146 54.866 149.134 58 153 58Z" fill="#3D8FDB"/>
</svg>
