<svg width="193" height="102" viewBox="0 0 193 102" fill="none" xmlns="http://www.w3.org/2000/svg">
<path fill-rule="evenodd" clip-rule="evenodd" d="M35 101.464C37.0274 98.7439 38.8938 95.8563 40.5817 92.8215C44.4314 85.9003 47.3533 78.2134 49.1422 70H0V61H50.6171C50.9814 57.7267 51.1693 54.3889 51.1693 51C51.1693 47.6111 50.9814 44.2733 50.6171 41H0V32H49.1422C47.3533 23.7866 44.4314 16.0997 40.5817 9.17851C38.8938 6.14371 37.0274 3.25612 35 0.535886C38.4652 0.241621 41.9963 0.065626 45.5808 0.0151589C46.2972 0.00507228 47.0158 0 47.7364 0C92.0029 0 135.071 31.0182 142.025 47H193V56H141.553C133.307 72.2386 91.0967 102 47.7364 102C47.0158 102 46.2972 101.995 45.5808 101.985C41.9963 101.934 38.4652 101.758 35 101.464ZM108.762 74.0972C92.6898 84.0446 71.7148 92.2443 50.6613 92.9506C56.741 80.4915 60.1693 66.1673 60.1693 51C60.1693 35.8328 56.741 21.5085 50.6613 9.04935C71.7148 9.75569 92.6898 17.9554 108.762 27.9028C117.131 33.0829 123.865 38.5508 128.382 43.3163C130.647 45.7062 132.195 47.7516 133.124 49.3376C133.616 50.1776 133.837 50.7226 133.934 51C133.837 51.2774 133.616 51.8224 133.124 52.6624C132.195 54.2484 130.647 56.2938 128.382 58.6837C123.865 63.4492 117.131 68.9171 108.762 74.0972Z" fill="#3D8FDB"/>
</svg>
